<?xml version="1.0" encoding="utf-8"?>
<!-- Generator: Adobe Illustrator 16.0.0, SVG Export Plug-In . SVG Version: 6.00 Build 0)  -->
<!DOCTYPE svg PUBLIC "-//W3C//DTD SVG 1.1//EN" "http://www.w3.org/Graphics/SVG/1.1/DTD/svg11.dtd">
<svg version="1.1" id="Layer_1" xmlns="http://www.w3.org/2000/svg" xmlns:xlink="http://www.w3.org/1999/xlink" x="0px" y="0px"
	 width="144.917px" height="75.75px" viewBox="0 0 144.917 75.75" enable-background="new 0 0 144.917 75.75" xml:space="preserve">
<g>
	<g>
		<path fill="#F89838" d="M32.638,56.478c0.023,0.383,0.245,0.668,0.662,0.854c0.325,0.146,0.708,0.217,1.149,0.217
			c0.32,0,0.624-0.057,0.919-0.171c0.388-0.152,0.583-0.359,0.583-0.622c0-0.275-0.218-0.49-0.65-0.642
			c-0.273-0.097-0.713-0.18-1.322-0.257c-0.607-0.073-0.979-0.137-1.114-0.185c-0.193-0.074-0.368-0.177-0.523-0.308
			c-0.257-0.208-0.427-0.384-0.511-0.529c-0.102-0.18-0.152-0.421-0.152-0.72c0-0.588,0.293-1.052,0.883-1.393
			c0.493-0.288,1.06-0.43,1.705-0.43c0.706,0,1.309,0.14,1.804,0.423c0.581,0.331,0.916,0.814,1.011,1.456l-1.017,0.214
			c-0.104-0.454-0.396-0.762-0.877-0.931h0.006c-0.375-0.099-0.728-0.151-1.06-0.151c-0.497,0-0.888,0.112-1.174,0.332h0.007
			c-0.155,0.131-0.233,0.278-0.233,0.444c0,0.411,0.372,0.685,1.122,0.817c0.546,0.067,1.094,0.134,1.645,0.199
			c0.4,0.101,0.775,0.295,1.127,0.582c0.273,0.224,0.412,0.584,0.412,1.077c0,0.506-0.218,0.903-0.65,1.196h0.005
			c-0.543,0.414-1.206,0.621-1.988,0.621c-0.703,0-1.301-0.142-1.792-0.425c-0.577-0.334-0.913-0.818-1.004-1.453L32.638,56.478z"/>
		<path fill="#F89838" d="M41.169,52.271c1.237,0,2.176,0.632,2.815,1.901h-1.203c-0.396-0.579-0.932-0.868-1.607-0.868
			c-0.571,0-1.05,0.213-1.434,0.639c-0.385,0.428-0.576,0.926-0.576,1.493c0,0.572,0.192,1.07,0.58,1.493v-0.008
			c0.391,0.419,0.866,0.629,1.425,0.629c0.591,0,1.114-0.262,1.572-0.793h1.219c-0.698,1.223-1.626,1.829-2.79,1.829
			c-0.847,0-1.572-0.313-2.167-0.939c-0.595-0.63-0.894-1.366-0.894-2.213c0-0.851,0.292-1.587,0.879-2.209
			C39.587,52.589,40.315,52.271,41.169,52.271z"/>
		<path fill="#F89838" d="M44.698,52.402h1.823v6.055h-1.04v-5.022h-0.783V52.402z M45.398,50.556c0-0.161,0.059-0.297,0.181-0.411
			c0.119-0.114,0.261-0.173,0.425-0.173c0.165,0,0.307,0.058,0.426,0.17c0.119,0.11,0.181,0.249,0.181,0.414
			c0,0.162-0.061,0.302-0.176,0.413c-0.118,0.113-0.261,0.171-0.431,0.171c-0.164,0-0.306-0.058-0.425-0.174
			C45.458,50.854,45.398,50.716,45.398,50.556z"/>
		<path fill="#F89838" d="M48.485,55.646c0.042,0.467,0.254,0.899,0.638,1.293h-0.008c0.405,0.407,0.879,0.61,1.427,0.61
			c0.424,0,0.831-0.127,1.219-0.382c0.369-0.245,0.65-0.563,0.837-0.953l1.049,0.175c-0.257,0.635-0.666,1.155-1.226,1.564
			c-0.581,0.424-1.208,0.634-1.88,0.634c-0.854,0-1.583-0.313-2.19-0.938c-0.606-0.626-0.91-1.362-0.91-2.214
			c0-0.845,0.305-1.582,0.911-2.214c0.608-0.634,1.338-0.948,2.188-0.948c0.915,0,1.662,0.338,2.247,1.021
			c0.55,0.649,0.826,1.437,0.826,2.354h-5.128V55.646z M50.542,53.305c-0.382,0-0.759,0.132-1.123,0.395
			c-0.345,0.246-0.605,0.553-0.777,0.912h3.757c-0.173-0.381-0.42-0.686-0.739-0.926C51.313,53.431,50.942,53.305,50.542,53.305z"/>
		<path fill="#F89838" d="M54.872,52.402h1.04v0.792c0.493-0.615,1.15-0.922,1.97-0.922c0.925,0,1.646,0.293,2.159,0.884
			c0.479,0.555,0.719,1.299,0.719,2.23v3.071h-1.054v-3.02c0-0.631-0.139-1.131-0.416-1.502c-0.315-0.42-0.786-0.632-1.408-0.632
			c-0.581,0-1.058,0.215-1.433,0.644c-0.357,0.413-0.537,0.911-0.537,1.49v3.02h-1.04V52.402z"/>
		<path fill="#F89838" d="M65.026,52.271c1.238,0,2.176,0.632,2.815,1.901h-1.203c-0.395-0.579-0.931-0.868-1.609-0.868
			c-0.571,0-1.05,0.213-1.432,0.639c-0.385,0.428-0.579,0.926-0.579,1.493c0,0.572,0.194,1.07,0.582,1.493v-0.008
			c0.392,0.419,0.867,0.629,1.426,0.629c0.588,0,1.111-0.262,1.572-0.793h1.217c-0.698,1.223-1.627,1.829-2.789,1.829
			c-0.851,0-1.574-0.313-2.167-0.939c-0.596-0.63-0.894-1.366-0.894-2.213c0-0.851,0.293-1.587,0.877-2.209
			C63.445,52.589,64.173,52.271,65.026,52.271z"/>
		<path fill="#F89838" d="M69.627,55.646c0.042,0.467,0.253,0.899,0.637,1.293h-0.005c0.405,0.407,0.878,0.61,1.425,0.61
			c0.425,0,0.829-0.127,1.22-0.382c0.37-0.245,0.649-0.563,0.839-0.953l1.044,0.175c-0.257,0.635-0.665,1.155-1.223,1.564
			c-0.581,0.424-1.207,0.634-1.882,0.634c-0.855,0-1.583-0.313-2.189-0.938c-0.608-0.626-0.91-1.362-0.91-2.214
			c0-0.845,0.304-1.582,0.913-2.214c0.608-0.634,1.336-0.948,2.186-0.948c0.915,0,1.662,0.338,2.249,1.021
			c0.55,0.649,0.824,1.437,0.824,2.354h-5.13v-0.002H69.627z M71.686,53.305c-0.382,0-0.756,0.132-1.122,0.395
			c-0.346,0.246-0.605,0.553-0.778,0.912h3.754c-0.173-0.381-0.418-0.686-0.738-0.926C72.457,53.431,72.086,53.305,71.686,53.305z"
			/>
		<path fill="#F89838" d="M83.822,58.586c-0.813,0-1.481-0.307-2.007-0.929v3.223h-1.043v-8.478h1.043V53.2
			c0.525-0.621,1.194-0.928,2.007-0.928c0.849,0,1.574,0.316,2.176,0.953c0.59,0.629,0.884,1.363,0.884,2.209
			s-0.294,1.582-0.884,2.202C85.396,58.271,84.671,58.586,83.822,58.586z M83.818,57.551c0.555,0,1.032-0.218,1.43-0.652
			c0.386-0.417,0.58-0.905,0.58-1.464c0-0.557-0.192-1.051-0.573-1.473c-0.393-0.439-0.875-0.655-1.437-0.655
			c-0.564,0-1.039,0.216-1.424,0.655c-0.366,0.42-0.548,0.91-0.548,1.473c0,0.559,0.184,1.051,0.554,1.464
			C82.786,57.332,83.258,57.551,83.818,57.551z"/>
		<path fill="#F89838" d="M93.327,58.457h-1.042v-0.602c-0.494,0.488-1.047,0.729-1.667,0.729c-0.862,0-1.532-0.294-2.013-0.891
			c-0.442-0.545-0.665-1.257-0.665-2.129V52.4h1.044v3.161c0,0.532,0.135,0.987,0.405,1.358c0.303,0.421,0.714,0.629,1.229,0.629
			c0.557,0,0.983-0.222,1.283-0.674c0.256-0.384,0.385-0.866,0.385-1.447V52.4h1.043v6.056L93.327,58.457L93.327,58.457z"/>
		<path fill="#F89838" d="M97.763,52.271c0.854,0,1.605,0.314,2.254,0.947c0.646,0.634,0.973,1.37,0.973,2.216
			c0,0.84-0.319,1.574-0.959,2.207c-0.641,0.63-1.384,0.944-2.234,0.944c-0.818,0-1.487-0.307-2.014-0.929v0.8h-1.055v-8.474h1.055
			V53.2C96.278,52.579,96.939,52.271,97.763,52.271z M97.763,53.305c-0.563,0-1.034,0.218-1.413,0.656
			c-0.356,0.415-0.535,0.906-0.535,1.474c0,0.559,0.185,1.053,0.553,1.469c0.394,0.433,0.869,0.646,1.429,0.646
			c0.562,0,1.063-0.21,1.499-0.64c0.436-0.425,0.652-0.92,0.652-1.476c0-0.552-0.224-1.044-0.669-1.477
			C98.83,53.521,98.326,53.305,97.763,53.305z"/>
		<path fill="#F89838" d="M102.307,49.983h1.055v8.474h-1.055V49.983z"/>
		<path fill="#F89838" d="M104.668,52.402h1.824v6.055h-1.041v-5.022h-0.783V52.402L104.668,52.402z M105.368,50.556
			c0-0.161,0.06-0.297,0.179-0.411c0.122-0.113,0.263-0.173,0.427-0.173s0.307,0.058,0.427,0.17c0.121,0.11,0.181,0.249,0.181,0.414
			c0,0.162-0.06,0.302-0.176,0.413c-0.119,0.113-0.262,0.171-0.43,0.171c-0.164,0-0.307-0.058-0.427-0.174
			C105.428,50.854,105.368,50.716,105.368,50.556z"/>
		<path fill="#F89838" d="M108.456,56.478c0.025,0.383,0.243,0.668,0.661,0.854c0.323,0.146,0.707,0.217,1.15,0.217
			c0.318,0,0.625-0.057,0.919-0.171c0.387-0.152,0.583-0.359,0.583-0.622c0-0.275-0.217-0.49-0.649-0.642
			c-0.274-0.097-0.716-0.18-1.325-0.257c-0.607-0.073-0.978-0.137-1.113-0.185c-0.192-0.074-0.368-0.177-0.524-0.308
			c-0.257-0.208-0.427-0.384-0.512-0.529c-0.1-0.18-0.152-0.421-0.152-0.72c0-0.588,0.298-1.052,0.887-1.393
			c0.489-0.288,1.06-0.43,1.704-0.43c0.706,0,1.31,0.14,1.803,0.423c0.582,0.331,0.918,0.814,1.011,1.456l-1.015,0.214
			c-0.106-0.454-0.397-0.762-0.878-0.931h0.005c-0.373-0.099-0.727-0.151-1.059-0.151c-0.497,0-0.888,0.112-1.176,0.332h0.009
			c-0.155,0.131-0.235,0.278-0.235,0.444c0,0.411,0.375,0.685,1.125,0.817c0.545,0.067,1.094,0.134,1.645,0.199
			c0.396,0.101,0.773,0.295,1.127,0.582c0.273,0.224,0.41,0.584,0.41,1.077c0,0.506-0.217,0.903-0.65,1.196h0.009
			c-0.545,0.414-1.209,0.621-1.991,0.621c-0.703,0-1.3-0.142-1.791-0.425c-0.577-0.334-0.911-0.818-1.004-1.453L108.456,56.478z"/>
		<path fill="#F89838" d="M114.072,49.983h1.041V53.2c0.506-0.621,1.155-0.929,1.955-0.929c0.829,0,1.498,0.317,2.009,0.959
			c0.467,0.595,0.699,1.313,0.699,2.155v3.071h-1.04v-3.02c0-0.567-0.133-1.051-0.393-1.445c-0.302-0.46-0.729-0.688-1.275-0.688
			c-0.55,0-1.02,0.219-1.407,0.663c-0.366,0.425-0.548,0.914-0.548,1.469v3.019h-1.041V49.983L114.072,49.983z"/>
		<path fill="#F89838" d="M121.887,55.646c0.041,0.467,0.252,0.899,0.636,1.293h-0.008c0.407,0.407,0.88,0.61,1.43,0.61
			c0.425,0,0.829-0.127,1.216-0.382c0.372-0.245,0.648-0.563,0.843-0.953l1.045,0.175c-0.256,0.635-0.665,1.155-1.225,1.564
			c-0.58,0.424-1.207,0.634-1.879,0.634c-0.856,0-1.586-0.313-2.191-0.938c-0.604-0.626-0.911-1.362-0.911-2.214
			c0-0.845,0.307-1.582,0.915-2.214c0.606-0.634,1.335-0.948,2.188-0.948c0.91,0,1.66,0.338,2.244,1.021
			c0.554,0.649,0.829,1.437,0.829,2.354h-5.131V55.646L121.887,55.646z M123.942,53.305c-0.385,0-0.76,0.132-1.124,0.395
			c-0.344,0.246-0.605,0.553-0.776,0.912h3.755c-0.171-0.381-0.419-0.686-0.738-0.926C124.714,53.431,124.342,53.305,123.942,53.305
			z"/>
		<path fill="#F89838" d="M129.315,53.238c0.536-0.56,1.188-0.837,1.955-0.837h1.374v1.361c-0.521-0.217-0.966-0.328-1.331-0.328
			c-0.572,0-1.046,0.195-1.428,0.579s-0.57,0.86-0.57,1.423v3.019h-1.054V52.4h1.054V53.238L129.315,53.238z"/>
		<path fill="#F89838" d="M134.772,56.478c0.023,0.383,0.247,0.668,0.663,0.854c0.323,0.146,0.706,0.217,1.148,0.217
			c0.319,0,0.63-0.057,0.923-0.171c0.389-0.152,0.578-0.359,0.578-0.622c0-0.275-0.216-0.49-0.647-0.642
			c-0.276-0.097-0.715-0.18-1.32-0.257c-0.61-0.073-0.983-0.137-1.117-0.185c-0.192-0.074-0.366-0.177-0.523-0.308
			c-0.256-0.208-0.428-0.384-0.512-0.529c-0.102-0.18-0.151-0.421-0.151-0.72c0-0.588,0.295-1.052,0.882-1.393
			c0.494-0.288,1.062-0.43,1.707-0.43c0.704,0,1.308,0.14,1.804,0.423c0.582,0.331,0.92,0.814,1.009,1.456l-1.015,0.214
			c-0.103-0.454-0.396-0.762-0.877-0.931h0.005c-0.372-0.099-0.725-0.151-1.059-0.151c-0.496,0-0.888,0.112-1.175,0.332h0.007
			c-0.155,0.131-0.231,0.278-0.231,0.444c0,0.411,0.371,0.685,1.119,0.817c0.546,0.067,1.097,0.134,1.645,0.199
			c0.402,0.101,0.774,0.295,1.127,0.582c0.274,0.224,0.41,0.584,0.41,1.077c0,0.506-0.214,0.903-0.647,1.196h0.007
			c-0.544,0.414-1.206,0.621-1.988,0.621c-0.701,0-1.304-0.142-1.793-0.425c-0.577-0.334-0.912-0.818-1.004-1.453L134.772,56.478z"
			/>
	</g>
	<g>
		<path fill="#F89838" d="M4.505,74.87c-1.1-4.402-2.313-11.654-1.2-18.979c0.645-4.175,2.112-8.483,4.476-12.649
			c2.688-4.739,6.599-9.404,11.833-13.467c6.079-4.698,13.867-8.477,22.777-11.554c10.464-3.606,22.328-6.194,34.316-8.072
			c13.909-2.166,27.395-3.288,37.992-3.856c11.685-0.625,18.896-0.539,18.896-0.539c-1.938-1.879-3.926-3.704-5.938-5.501
			c2.158-0.094,4.354-0.172,6.584-0.252c2.919,2.683,5.759,5.447,8.525,8.271c-2.615,2.63-5.157,5.158-7.625,7.585
			c-2.083-0.115-4.136-0.219-6.152-0.32c1.601-1.659,3.238-3.373,4.888-5.138c0,0-7.069-0.264-18.556,0.038
			c-10.445,0.277-23.784,1.018-37.595,2.771c-11.941,1.53-23.8,3.754-34.301,7.021c-8.958,2.791-16.818,6.307-22.995,10.773
			c-5.326,3.867-9.327,8.358-12.096,12.958c-2.445,4.048-3.984,8.251-4.687,12.344C2.421,63.492,3.546,70.65,4.597,75
			C4.567,74.957,4.534,74.913,4.505,74.87z"/>
		<polygon fill="#F89838" points="133.426,10.52 128.105,16.265 134.691,15.98 142.314,8.393 133.792,0.124 127.206,0.373 
			133.146,5.88 		"/>
	</g>
	<g>
		<path fill="#08BCC1" d="M50.859,46.783V36.174c0-0.704-0.062-1.346-0.184-1.918c-0.122-0.574-0.35-1.067-0.684-1.476
			c-0.333-0.409-0.799-0.725-1.396-0.95c-0.597-0.226-1.365-0.337-2.303-0.337c-0.715,0-1.464,0.094-2.247,0.282
			c-0.787,0.188-1.564,0.439-2.336,0.753c-0.77,0.31-1.504,0.672-2.204,1.084c-0.701,0.415-1.323,0.848-1.868,1.296v11.876h-5.23
			V27.856h5.23v2.591c0.657-0.369,1.358-0.733,2.1-1.098c0.741-0.363,1.531-0.689,2.368-0.983c0.836-0.295,1.724-0.533,2.665-0.718
			c0.938-0.185,1.93-0.275,2.975-0.275c1.307,0,2.473,0.153,3.503,0.462c1.029,0.306,1.9,0.744,2.614,1.306
			c0.715,0.565,1.263,1.25,1.642,2.053c0.38,0.804,0.57,1.703,0.57,2.693v12.895h-5.215V46.783z"/>
		<path fill="#08BCC1" d="M87.108,37.334c0,1.624-0.306,3.061-0.915,4.303c-0.61,1.245-1.484,2.285-2.622,3.121
			c-1.137,0.835-2.516,1.467-4.135,1.894c-1.62,0.427-3.442,0.642-5.462,0.642c-2.02,0-3.847-0.213-5.475-0.642
			c-1.63-0.427-3.019-1.06-4.166-1.894c-1.146-0.836-2.028-1.876-2.648-3.121c-0.62-1.242-0.931-2.679-0.931-4.303
			c0-1.626,0.311-3.062,0.931-4.307c0.621-1.244,1.502-2.283,2.648-3.119c1.147-0.836,2.535-1.468,4.166-1.895
			c1.628-0.427,3.455-0.64,5.475-0.64c2.02,0,3.842,0.213,5.462,0.64c1.619,0.427,2.999,1.058,4.135,1.895
			c1.138,0.836,2.012,1.875,2.622,3.119C86.803,34.272,87.108,35.708,87.108,37.334z M81.824,37.334
			c0-0.706-0.116-1.412-0.346-2.116c-0.231-0.7-0.641-1.333-1.228-1.894c-0.587-0.559-1.389-1.013-2.402-1.362
			c-1.016-0.35-2.307-0.522-3.876-0.522c-1.054,0-1.979,0.08-2.775,0.239c-0.8,0.16-1.49,0.382-2.073,0.667
			c-0.583,0.285-1.071,0.62-1.466,1.001c-0.395,0.38-0.709,0.79-0.945,1.226c-0.234,0.436-0.401,0.892-0.499,1.363
			c-0.098,0.474-0.149,0.938-0.149,1.399c0,0.468,0.049,0.941,0.149,1.42c0.098,0.478,0.265,0.934,0.499,1.369
			c0.236,0.435,0.55,0.841,0.945,1.221c0.396,0.375,0.883,0.704,1.466,0.983c0.583,0.28,1.273,0.5,2.073,0.661
			c0.797,0.161,1.722,0.242,2.775,0.242c1.568,0,2.86-0.175,3.876-0.522c1.014-0.351,1.815-0.805,2.402-1.364
			c0.587-0.562,0.996-1.191,1.228-1.893C81.709,38.747,81.824,38.041,81.824,37.334z"/>
		<path fill="#08BCC1" d="M104.586,46.783h-6.09l-9.795-18.929h5.835l7.047,14.244l7.035-14.244h5.832L104.586,46.783z"/>
		<path fill="#08BCC1" d="M134.043,46.783v-1.86c-0.667,0.36-1.383,0.677-2.148,0.95c-0.764,0.278-1.561,0.512-2.389,0.702
			c-0.828,0.193-1.68,0.337-2.558,0.436c-0.877,0.098-1.766,0.145-2.658,0.145c-1.042,0-2.05-0.098-3.024-0.289
			c-0.971-0.192-1.835-0.507-2.585-0.937c-0.752-0.432-1.356-0.998-1.813-1.696c-0.455-0.696-0.682-1.552-0.682-2.561
			c0-1.276,0.356-2.338,1.071-3.188c0.712-0.852,1.803-1.548,3.269-2.089c1.465-0.542,3.32-0.958,5.562-1.252
			c2.241-0.294,4.893-0.523,7.954-0.688v-0.401c0-0.312-0.086-0.618-0.254-0.928c-0.166-0.306-0.476-0.579-0.924-0.813
			c-0.446-0.234-1.057-0.425-1.831-0.57c-0.774-0.147-1.766-0.22-2.966-0.22c-0.951,0-1.889,0.048-2.812,0.144
			c-0.928,0.095-1.818,0.227-2.679,0.392s-1.677,0.359-2.442,0.579c-0.774,0.219-1.473,0.449-2.102,0.687v-4.546
			c0.656-0.165,1.394-0.326,2.21-0.482c0.818-0.155,1.67-0.292,2.554-0.407c0.883-0.111,1.774-0.208,2.679-0.275
			c0.9-0.067,1.769-0.103,2.592-0.103c1.625,0,3.123,0.131,4.496,0.393c1.37,0.26,2.553,0.667,3.546,1.219
			c0.989,0.551,1.767,1.25,2.324,2.095c0.561,0.844,0.837,1.849,0.837,3.016v12.549H134.043L134.043,46.783z M134.043,38.146
			c-2.012,0.072-3.718,0.18-5.123,0.317c-1.404,0.137-2.57,0.3-3.502,0.481c-0.932,0.185-1.663,0.381-2.189,0.593
			c-0.534,0.212-0.933,0.429-1.191,0.646c-0.265,0.222-0.427,0.442-0.491,0.663c-0.059,0.222-0.09,0.423-0.09,0.603
			c0,0.222,0.063,0.438,0.185,0.644c0.122,0.207,0.337,0.388,0.641,0.545c0.307,0.156,0.714,0.281,1.222,0.374
			c0.506,0.092,1.146,0.135,1.915,0.135c0.856,0,1.692-0.063,2.509-0.191c0.818-0.13,1.595-0.307,2.328-0.528
			c0.732-0.229,1.419-0.496,2.063-0.802s1.22-0.635,1.726-0.984L134.043,38.146L134.043,38.146z"/>
	</g>
</g>
</svg>
